<?xml version="1.0" encoding="UTF-8"?>
<svg width="1200pt" height="1200pt" version="1.1" viewBox="0 0 1200 1200" xmlns="http://www.w3.org/2000/svg">
 <path d="m184.78 1070.6h116.44c8.4844 0.84375 16.969-1.7344 23.578-7.125s10.828-13.219 11.672-21.75v-206.63c-0.84375-8.5312-5.0625-16.312-11.672-21.75-6.6094-5.3906-15.094-7.9688-23.578-7.0781h-116.44c-8.4844-0.89062-16.969 1.6875-23.578 7.0781-6.6094 5.4375-10.781 13.219-11.625 21.75v206.68c0.84375 8.4844 5.0156 16.312 11.625 21.703s15.094 7.9688 23.578 7.125zm278.68 0h116.39c10.359-0.98438 19.875-6 26.484-14.016s9.7969-18.328 8.7656-28.688v-448.74c1.0312-10.359-2.1562-20.672-8.7656-28.688-6.6094-7.9688-16.125-13.031-26.484-13.969h-116.34c-10.359 0.9375-19.875 6-26.484 13.969-6.6094 8.0156-9.7969 18.328-8.7656 28.688v448.87c-1.0312 10.312 2.1562 20.625 8.7656 28.641 6.6094 8.0156 16.125 13.078 26.484 14.016zm278.68-394.69c-19.547 0.09375-35.297 15.984-35.25 35.484v323.68c-0.046875 19.547 15.703 35.438 35.25 35.531h116.39c19.547-0.09375 35.297-15.984 35.25-35.531v-323.68c0.046875-19.547-15.75-35.391-35.25-35.531zm395.21-258.79h-116.48c-20.016 0-35.25 20.953-35.25 48.703v555.98c0 27.75 15.141 48.703 35.25 48.703h116.48c20.062 0 35.25-20.953 35.25-48.703v-555.98c0-27.75-15.141-48.703-35.25-48.703zm35.25 751.26c0 9.4219-7.6406 17.109-17.062 17.109h-1110.9c-4.5469 0-8.9062-1.8281-12.094-5.0156s-5.0156-7.5469-5.0156-12.094v-987.37c-0.14062-4.6406 1.6406-9.0938 4.8281-12.422 3.2344-3.2812 7.6406-5.1562 12.281-5.1562 4.5938 0 9.0469 1.875 12.234 5.1562 3.2344 3.3281 4.9688 7.7812 4.8281 12.422v970.31h1093.8c9.4688 0 17.109 7.6406 17.109 17.062zm-447.32-724.87c68.672 0 133.18-32.859 173.53-88.359l-160.4-98.344-27.422 186.24c4.6875 0.32812 9.4688 0.46875 14.297 0.46875zm214.82-214.78c-0.09375-54-20.438-106.03-57.094-145.69-36.609-39.656-86.812-64.125-140.68-68.484v204.56l174.37 106.92c15.422-30.141 23.391-63.516 23.391-97.312zm-231.94-214.18c-68.719 5.5312-130.69 43.688-166.45 102.66-35.812 58.969-41.109 131.53-14.297 195.1 26.812 63.516 82.547 110.3 149.76 125.76l30.984-210.66z" fill="#fff" fill-rule="evenodd"/>
</svg>
