<?xml version="1.0" encoding="UTF-8"?>
<svg width="1200pt" height="1200pt" version="1.1" viewBox="0 0 1200 1200" xmlns="http://www.w3.org/2000/svg">
 <path d="m734.21 478.64-118.04 191.04c-5.3281-0.83203-10.762-1.3711-16.324-1.3711-60.75 0-109.95 49.199-109.95 109.94 0 60.75 49.199 109.99 109.95 109.99 60.711 0 109.95-49.227 109.95-109.99 0-35.117-16.551-66.328-42.211-86.48l87.98-201.94z" fill="#fff"/>
 <path d="m599.84 153.86c-329.23 0-596.12 266.88-596.12 596.1 0 111.68 30.816 216.12 84.25 305.47 13.133-19.293 27.43-37.66 42.645-55.359-25.199-55.805-41.051-116.85-45.203-181.15l86.797-11.539c-0.10547-3.7305-0.27734-7.4102-0.27734-11.129 0-15.664 0.89844-31.082 2.5586-46.324h-89.012c4.5625-69.785 22.695-135.82 51.902-195.39l86.82 36.711c8.6523-15.797 18.344-30.977 28.852-45.508l-82.773-48.844c35.867-54.355 81.652-101.48 134.68-138.87l60.477 80.32c14.07-9.2305 28.695-17.629 43.848-25.172l-50.23-88.512c54.5-29.102 114.8-48.594 178.7-56.32l13.133 102.9c16.062-1.832 32.387-2.8867 48.961-2.8867v-103.89c64.602 0 126.36 12.094 183.36 33.98l-38.676 95.09c15.73 5.6562 31.043 12.238 45.863 19.637l50.215-88.512c56.914 30.383 107.46 71.234 149.26 119.99l-76.84 60.184c12.039 12.91 23.223 26.586 33.602 40.918l82.762-48.844c36.422 55.254 62.691 117.9 76.047 185.27l-90.066 11.988c4.4688 18.16 7.7812 36.777 9.8125 55.766h89.039c0.75 11.512 1.2773 23.051 1.2773 34.773 0 76.906-16.668 149.8-46.352 215.47 15.164 17.605 29.418 36.012 42.539 55.254 53.461-89.355 84.266-193.79 84.266-305.47-0.007812-329.23-266.89-596.11-596.11-596.11z" fill="#fff"/>
</svg>
