<?xml version="1.0" encoding="UTF-8"?>
<svg width="1200pt" height="1200pt" version="1.1" viewBox="0 0 1200 1200" xmlns="http://www.w3.org/2000/svg">
 <path d="m1090.8 52.738h-981.67c-46.398 0-84.137 37.75-84.137 84.137v630.55c0 46.398 37.75 84.137 84.137 84.137h363.8c-1.7617 70.988-18.176 174.5-98.801 174.5h-46.75c-33.414 0-60.586 27.188-60.586 60.586v23.199c0 20.625 16.773 37.398 37.398 37.398h591.54c20.625 0 37.398-16.773 37.398-37.398v-23.199c0-33.414-27.176-60.586-60.586-60.586h-46.75c-80.613 0-97.023-103.51-98.801-174.5h363.8c46.398 0 84.137-37.75 84.137-84.137l-0.003906-630.54c0.015624-46.398-37.723-84.148-84.125-84.148zm-218.26 1001.4c17.938 0 32.539 14.602 32.539 32.551v23.199c0 5.1484-4.1875 9.3516-9.3516 9.3516h-591.52c-5.1484 0-9.3516-4.1875-9.3516-9.3516v-23.199c0-17.949 14.602-32.551 32.551-32.551zm-141.88-58.262c6.7617 11.824 14.613 21.914 23.398 30.211h-308.2c8.8008-8.3008 16.637-18.387 23.398-30.211 19.688-34.387 30.324-82.898 31.727-144.29h197.96c1.3906 61.387 12.027 109.9 31.715 144.29zm416.23-228.43c0 30.926-25.164 56.102-56.102 56.102h-981.66c-30.926 0-56.102-25.164-56.102-56.102v-630.55c0-30.938 25.164-56.102 56.102-56.102h981.68c30.926 0 56.102 25.164 56.102 56.102l-0.003906 630.55zm-56.09-658.6h-981.67c-15.461 0-28.051 12.586-28.051 28.051v567.43c0 15.461 12.586 28.051 28.051 28.051h981.68c15.461 0 28.051-12.586 28.051-28.051l-0.003906-567.43c0-15.473-12.586-28.051-28.051-28.051zm0 595.48h-981.67v-567.43l981.68 0.10156zm-776.95-100.02c91.023 0 165.07-74.051 165.07-165.07 0-7.75-6.2734-14.023-14.023-14.023l-137.02-0.003906v-137.04c0-7.75-6.2734-14.023-14.023-14.023-91.023 0-165.07 74.051-165.07 165.07-0.003906 91.027 74.047 165.09 165.07 165.09zm-14.023-301.4v136.31c0 7.75 6.2734 14.023 14.023 14.023h136.31c-7.0391 69-65.488 123-136.31 123-75.562 0-137.02-61.477-137.02-137.02-0.011719-70.824 54-129.26 123-136.31zm50.473 113.89h151.05c7.75 0 14.023-6.2734 14.023-14.023 0-91.023-74.051-165.07-165.07-165.07-7.75 0-14.023 6.2734-14.023 14.023v151.05c0 7.7383 6.2891 14.023 14.023 14.023zm14.027-150.35c64.387 6.5742 115.73 57.898 122.29 122.3h-122.29zm208.22 209.91h70.738c7.75 0 14.023-6.2734 14.023-14.023l0.003906-140.64c0-7.75-6.2734-14.023-14.023-14.023h-70.738c-7.75 0-14.023 6.2734-14.023 14.023v140.64c-0.003906 7.7383 6.2695 14.023 14.02 14.023zm14.016-140.64h42.699v112.59h-42.699zm117.26 140.64h70.738c7.75 0 14.023-6.2734 14.023-14.023v-281.27c0-7.75-6.2734-14.023-14.023-14.023h-70.738c-7.75 0-14.023 6.2734-14.023 14.023v281.26c-0.003906 7.75 6.2852 14.035 14.023 14.035zm14.023-281.27h42.699v253.21h-42.699zm117.26 281.27h70.738c7.75 0 14.023-6.2734 14.023-14.023v-199.12c0-7.75-6.2734-14.023-14.023-14.023h-70.738c-7.75 0-14.023 6.2734-14.023 14.023v199.12c0 7.7383 6.2734 14.023 14.023 14.023zm14.027-199.12h42.688v171.07h-42.688zm117.25 199.12h70.738c7.75 0 14.023-6.2734 14.023-14.023v-238.56c0-7.75-6.2734-14.023-14.023-14.023h-70.738c-7.75 0-14.023 6.2734-14.023 14.023v238.56c0.011718 7.7383 6.2852 14.023 14.023 14.023zm14.023-238.56h42.688v210.51h-42.688zm70.75 294.65c0 7.75-6.2734 14.023-14.023 14.023h-464.59c-7.75 0-14.023-6.2734-14.023-14.023s6.2734-14.023 14.023-14.023h464.59c7.7422-0.003906 14.027 6.2852 14.027 14.023zm-232.3 127.72c0 7.75-6.2734 14.023-14.023 14.023l-232.29 0.003906c-7.75 0-14.023-6.2734-14.023-14.023s6.2734-14.023 14.023-14.023l232.29-0.003906c7.75 0 14.023 6.2891 14.023 14.023zm232.3-63.859c0 7.75-6.2734 14.023-14.023 14.023h-464.59c-7.75 0-14.023-6.2734-14.023-14.023s6.2734-14.023 14.023-14.023h464.59c7.7422-0.003906 14.027 6.2852 14.027 14.023z" fill="#fff"/>
</svg>
