<?xml version="1.0" encoding="UTF-8"?>
<svg width="1200pt" height="1200pt" version="1.1" viewBox="0 0 1200 1200" xmlns="http://www.w3.org/2000/svg">
 <path d="m596.75 255.75-344.75 210.5v530.5h688.5v-531zm-175 220.25c14.238-29.594 35.645-55.156 62.277-74.367 26.637-19.211 57.648-31.461 90.223-35.633 6.75 0 13.5-1.25 20.5-1.5 13.883-0.54688 27.785 0.29297 41.5 2.5 31.973 4.875 62.238 17.582 88.105 36.992 25.867 19.414 46.531 44.922 60.145 74.258 15.051 30.828 22.348 64.863 21.258 99.148-1.0898 34.289-10.531 67.793-27.508 97.602l-103.25 180.25c-9.4805 16.484-24.473 29.094-42.34 35.609-17.863 6.5117-37.457 6.5117-55.32 0-17.867-6.5156-32.859-19.125-42.34-35.609l-106-180.25c-17.73-30.137-27.594-64.254-28.684-99.203-1.0938-34.949 6.6211-69.609 22.434-100.8zm181 491.25c-127 0-255.25-34.75-255.25-101.5 0-22.5 15.25-54.5 88-78.25 6.1172-1.332 12.492 0.47656 16.996 4.8203 4.5078 4.3438 6.5508 10.648 5.4453 16.809-1.1016 6.1602-5.207 11.363-10.941 13.871-42.75 14-62 31.75-62 42.75 0 25 84.75 64 217.75 64s217.75-37.75 217.75-64c0-11-19.25-28.75-62.25-42.75-4.6562-1.6016-8.5078-4.9453-10.746-9.3281-2.2383-4.3828-2.6875-9.4648-1.2539-14.172 1.543-4.75 4.918-8.6914 9.3789-10.941 4.457-2.2539 9.6289-2.6367 14.371-1.0586 72.75 25 88 55.75 88 78.25 1 66.75-127.25 101.5-254.25 101.5z" fill="#fff"/>
 <path d="m156 1058.8c0 6.6289 2.6328 12.988 7.3242 17.676 4.6875 4.6914 11.047 7.3242 17.676 7.3242h830.75c8.9297 0 17.184-4.7656 21.652-12.5 4.4648-7.7344 4.4648-17.266 0-25-4.4688-7.7344-12.723-12.5-21.652-12.5h-831c-6.5859 0.066406-12.883 2.7305-17.516 7.4102-4.6367 4.6797-7.2344 11.004-7.2344 17.59z" fill="#fff"/>
 <path d="m1108.2 421.5-488.75-298.5c-6.9688-4.1133-14.91-6.2812-23-6.2812s-16.031 2.168-23 6.2812l-488.5 298.5c-9.9805 6.0078-17.133 15.766-19.859 27.09-2.7227 11.324-0.79297 23.27 5.3594 33.16 6.1016 9.875 15.855 16.941 27.141 19.656s23.184 0.86328 33.109-5.1562l97.5-59.5 358.75-219c2.8945-1.8867 6.2969-2.8438 9.75-2.75 3.4492-0.066406 6.8438 0.89062 9.75 2.75l357.25 218.25 100 60.25c8.9258 5.3906 19.473 7.4375 29.766 5.7734 10.293-1.6602 19.66-6.9219 26.434-14.848 6.7734-7.9258 10.512-18 10.551-28.426-0.046875-3.4531-0.46484-6.8867-1.25-10.25-2.9922-11.504-10.586-21.27-21-27z" fill="#fff"/>
 <path d="m566 836.5c7.8125 13.293 22.082 21.453 37.5 21.453s29.688-8.1602 37.5-21.453l104.5-181c13.984-24.336 21.84-51.711 22.887-79.758 1.043-28.051-4.75-55.934-16.887-81.242-22.473-48.34-67.578-82.285-120.25-90.5-9.3398-1.5039-18.789-2.2578-28.25-2.25h-6.25c-5.6875 0.035156-11.367 0.45312-17 1.25-53.688 6.7578-100.23 40.395-123.5 89.25-12.719 25.375-18.918 53.512-18.047 81.883 0.87109 28.367 8.793 56.074 23.047 80.617zm-66-242v-12c0.015625-24.586 8.6562-48.387 24.418-67.254 15.762-18.867 37.641-31.605 61.832-35.996v-5.75c0-6.6992 3.5742-12.887 9.375-16.238 5.8008-3.3477 12.949-3.3477 18.75 0 5.8008 3.3516 9.375 9.5391 9.375 16.238v5.75c24.191 4.3906 46.07 17.129 61.832 35.996 15.762 18.867 24.402 42.668 24.418 67.254v12c4.6406 0.37891 8.9727 2.4922 12.121 5.9219 3.1523 3.4297 4.8945 7.9219 4.8789 12.578 0 4.9727-1.9766 9.7422-5.4922 13.258-3.5156 3.5156-8.2852 5.4922-13.258 5.4922h-208.25c-4.9727 0-9.7422-1.9766-13.258-5.4922-3.5156-3.5156-5.4922-8.2852-5.4922-13.258 0-4.9492 1.9844-9.6953 5.5078-13.172 3.5234-3.4766 8.293-5.3945 13.242-5.3281z" fill="#fff"/>
 <path d="m671.25 582.5c0-24.117-12.867-46.398-33.75-58.457-20.883-12.059-46.617-12.059-67.5 0-20.883 12.059-33.75 34.34-33.75 58.457v11.75h135z" fill="#fff"/>
</svg>
