<?xml version="1.0" encoding="UTF-8"?>
<svg width="1200pt" height="1200pt" version="1.1" viewBox="0 0 1200 1200" xmlns="http://www.w3.org/2000/svg">
 <path d="m624 224.58v-56.578h85.875v-48h-219.74v48h85.875v56.578c-195.05 11.391-344.68 160.82-346.13 350.11h740.26c-1.4531-189.24-151.08-338.68-346.13-350.11z" fill="#fff"/>
 <path d="m302.21 709.18h595.55c63.469 0 115.83-48.562 121.87-110.44h-839.29c6.0469 61.922 58.406 110.44 121.87 110.44z" fill="#fff"/>
 <path d="m1059.7 784.97c-20.344-16.734-49.688-16.406-69.703 0.70312l-186 159.32c-2.2031 1.9219-5.0625 2.9531-8.0156 2.9531h-284.48c-6.7969 0-12.328-5.4844-12.328-12.328 0-6.7969 5.4844-12.328 12.328-12.328l209.29 0.046875c-6-48.094-46.547-85.359-95.531-85.359h-261.14c-53.109 0-96.328 43.828-96.328 97.688 0 6.7969-5.4844 12.328-12.328 12.328l-135.52-0.046875v132.05h666.42c42.234 0 82.031-16.594 112.08-46.688l165.32-165.89c11.016-11.062 16.875-26.438 16.078-42.141-0.75-15.75-8.1094-30.422-20.156-40.312z" fill="#fff"/>
</svg>
