<?xml version="1.0" encoding="UTF-8"?>
<svg width="1200pt" height="1200pt" version="1.1" viewBox="0 0 1200 1200" xmlns="http://www.w3.org/2000/svg">
 <path d="m1197.9 1112.8-156.75-1032.6c0-0.5625-0.375-1.125-0.375-1.6875-0.1875-0.75-0.375-1.5-0.5625-2.0625-0.375-0.9375-0.75-1.6875-1.125-2.625-0.1875-0.5625-0.5625-1.125-0.9375-1.6875-0.5625-0.9375-1.125-1.6875-1.6875-2.4375-0.375-0.375-0.5625-0.75-0.75-1.125l-0.1875-0.1875c-0.75-0.9375-1.6875-1.6875-2.8125-2.4375l-0.75-0.75c-1.3125-0.9375-2.625-1.6875-3.9375-2.4375-0.5625-0.1875-0.9375-0.375-1.5-0.5625-0.9375-0.375-2.0625-0.75-3-0.9375-0.5625-0.1875-1.125-0.1875-1.875-0.1875-0.9375-0.1875-1.875-0.375-3-0.375h-0.5625-937.5c-12.938 0-23.25 10.312-23.25 23.25v200.44c0 12.938 10.312 23.25 23.25 23.25h63.188l-141.75 804.56c-1.125 6.75 0.75 13.688 5.0625 18.938 4.5 5.25 10.875 8.25 17.812 8.25h1150.1c6.75 0 13.312-3 17.625-8.0625 4.5-5.0625 6.375-11.812 5.25-18.562zm-1006.7-805.31h601.69c12.938 0 23.25-10.312 23.25-23.25s-10.312-23.25-23.25-23.25h-689.06v-154.12h887.62l-134.06 986.06h-804.75zm713.25 785.44 114.94-846 128.62 846z" fill="#4338ca"/>
</svg>
