<?xml version="1.0" encoding="UTF-8"?>
<svg width="1200pt" height="1200pt" version="1.1" viewBox="0 0 1200 1200" xmlns="http://www.w3.org/2000/svg">
 <path d="m566.39 791.63c5.1094 19.219 24.844 30.656 44.062 25.547h0.046875l452.06-121.22c19.219-5.1562 30.609-24.891 25.453-44.109l-121.13-452.06c-5.1562-19.219-24.891-30.609-44.109-25.453l-452.06 121.13c-19.172 5.1562-30.609 24.844-25.453 44.062zm183.79-496.45 32.625 121.69-69.609 18.656-32.531-121.74zm-139.08 37.266 41.906 156.47c5.1562 19.219 24.891 30.609 44.109 25.453l139.08-37.266c19.219-5.1562 30.609-24.891 25.453-44.109l-41.906-156.47 86.906-23.297 102.56 382.5-382.55 102.47-102.47-382.5zm514.18 458.53c-5.1562-19.172-24.891-30.562-44.062-25.406l-556.36 149.06-176.9-660.24c-30.094-111.75-117.38-199.08-229.13-229.22-19.219-5.1562-39 6.2344-44.109 25.453-5.1562 19.219 6.2812 38.953 25.5 44.109 86.906 23.438 154.78 91.266 178.22 178.18l18.516 69.141-104.34 27.938c-19.219 5.1562-30.609 24.891-25.453 44.109l112.78 420.84c-88.969 44.391-125.11 152.48-80.719 241.4 44.391 88.969 152.48 125.11 241.4 80.719 61.078-30.469 99.656-92.906 99.656-161.16 0-3.6094-0.14062-7.2656-0.375-10.875l559.87-150c19.219-5.1562 30.609-24.891 25.453-44.109l0.046875 0.046875zm-879.28-360.71 69.609-18.656 111.8 417.32c-21.328-8.625-44.109-13.031-67.125-13.031-3.6094 0-7.2656 0.14062-10.875 0.375zm114.28 673.69c-59.672 0-108-48.328-108-108s48.328-108 108-108 108 48.328 108 108c-0.046875 59.625-48.375 107.91-108 108z" fill="#fff"/>
</svg>
