<?xml version="1.0" encoding="UTF-8"?>
<svg width="1200pt" height="1200pt" version="1.1" viewBox="0 0 1200 1200" xmlns="http://www.w3.org/2000/svg">
 <path d="m1067.6 46.875h-629.63c-15.562 0-28.125 12.562-28.125 28.125v48.938c0 15.562 12.562 28.125 28.125 28.125s28.125-12.562 28.125-28.125v-20.812h573.37v993.74h-573.37v-20.812c0-15.562-12.562-28.125-28.125-28.125s-28.125 12.562-28.125 28.125v48.938c0 15.562 12.562 28.125 28.125 28.125h629.63c15.562 0 28.125-12.562 28.125-28.125v-1050c0-15.562-12.562-28.125-28.125-28.125z" fill="#fff"/>
 <path d="m499.87 970.31c7.6875 0 15.375-1.6875 22.688-4.875 20.25-9 32.812-28.312 32.812-50.438v-103.5h398.06c30.375 0 55.312-24.75 55.312-55.312v-312.56c0-30.375-24.75-55.312-55.312-55.312h-398.06v-103.31c0-22.125-12.562-41.438-32.812-50.438s-42.938-5.4375-59.625 9.75l-340.5 314.63c-11.438 10.5-18.188 25.5-18.188 41.062s6.5625 30.375 18 40.875l340.87 315.19c10.5 9.375 23.438 14.25 36.75 14.25z" fill="#fff"/>
</svg>
