<?xml version="1.0" encoding="UTF-8"?>
<svg width="1200pt" height="1200pt" version="1.1" viewBox="0 0 1200 1200" xmlns="http://www.w3.org/2000/svg">
 <path d="m921.6 222h-40.801v-152.4c0-24-14.398-39.602-33.602-39.602-3.6016 0-7.1992 1.1992-12 2.3984l-562.8 171.6c-25.199 7.1992-45.602 37.199-45.602 66v847.2c0 28.801 24 52.801 52.801 52.801h643.2c28.801 0 52.801-24 52.801-52.801l0.003906-842.4c-2.4023-28.801-25.203-52.801-54-52.801zm-452.4 764.4c-6 9.6016-18 13.199-27.602 7.1992l-33.598-21.598c-9.6016-6-12-19.199-4.8008-28.801l136.8-188.4 31.199 55.199zm303.6-15.598-34.801 22.801c-9.6016 6-22.801 3.6016-28.801-7.1992l-164.4-286.8-10.801 4.8008c-26.398 12-56.398 1.1992-69.602-22.801-13.199-25.199-32.398-64.801-69.602-138-37.199-72 14.398-138 24-122.4l145.2 224.4 214.8 296.4c6 9.6016 3.5977 22.801-6 28.801zm45.598-487.2-78 127.2-9.6016 15.602c-10.801 15.602-25.199 27.602-40.801 30l-33.602 7.1992-16.801 28.801-26.398-37.199 10.801-14.398-7.1992-32.398c-3.6016-15.602 0-33.602 10.801-50.398l9.6016-15.602 84-123.6c1.1992-2.3984 3.6016-2.3984 4.8008-1.1992l13.199 8.3984c1.1992 1.1992 2.3984 3.6016 1.1992 4.8008l-80.398 127.2c-1.1992 2.3984-1.1992 7.1992 2.3984 8.3984 1.1992 1.1992 3.6016 2.3984 4.8008 3.6016 2.3984 2.3984 6 1.1992 8.3984-1.1992 15.602-24 82.801-122.4 82.801-122.4 1.1992-1.1992 3.6016-2.3984 4.8008-1.1992l13.199 8.3984c1.1992 1.1992 2.3984 3.6016 1.1992 4.8008l-78 126c-1.1992 2.3984-1.1992 7.1992 2.3984 8.3984 1.1992 1.1992 3.6016 2.3984 4.8008 3.6016 2.3984 2.3984 6 1.1992 8.3984-1.1992 15.602-24 82.801-122.4 82.801-122.4 1.1992-1.1992 3.6016-2.3984 4.8008-1.1992l13.199 8.3984c2.4023-0.003906 2.4023 2.3945 2.4023 3.5977zm20.402-261.6h-488.4l488.4-148.8z" fill="#fff"/>
</svg>
