<?xml version="1.0" encoding="UTF-8"?>
<svg width="1200pt" height="1200pt" version="1.1" viewBox="0 0 1200 1200" xmlns="http://www.w3.org/2000/svg">
 <path d="m960 560v-280h-140v99.996h-230.46c14.762 16.441 24.684 36.719 28.633 59.062 5.5938 31.609-1.4414 63.434-19.883 89.734-22.414 32.062-59.195 51.168-98.352 51.168h-0.023438c-23.387 0-45.973-6.7188-65.531-19.488l-194.38-106.41v105.94l-120 200v319.99h291l8.4375-168.76c-34.992-15.59-59.438-50.461-59.387-91.199l-0.050781-160.04 40.031 0.046875 10.008 160.01h30v-160.05h40.008v160.05h29.902l10.059-160.05h39.984l-0.023438 160.05h0.023438c0.046874 40.738-24.445 75.66-59.426 91.246l8.4375 168.7h182.02l8.4375-168.76c-35.004-15.59-59.461-50.461-59.461-91.246 0-99.422 44.762-180 100.01-180 55.234 0 99.996 80.578 99.996 180 0 40.777-24.457 75.66-59.449 91.246l8.4375 168.76h291.01v-319.99z" fill="#fff"/>
 <path d="m120 320 345.56 189.14c27.191 18.984 64.621 12.336 83.578-14.762 18.984-27.109 12.422-64.535-14.746-83.52l-129.76-90.852h355.34v-39.996l-162.96-114.14c-35.996-25.246-101.49-45.875-145.47-45.875l-331.55 40.008z" fill="#fff"/>
</svg>
